# xmcd
#
# Track frame offsets: 
#        150
#        19280
#        53331
#        79131
#        101314
#        127444
#        153712
#        176679
#        208428
#        237042
#        261222
#        284279
#
# Disc length: 4099 seconds
#
# Revision: 0
# Processed by: cddbd v1.5.2PL0 Copyright (c) Steve Scherf et al.
# Submitted via: ExactAudioCopy v0.99pb4
#
DISCID=ab10010c
DTITLE=Phu Quang - Gui mot tinh yeu_The best of Phu Quang_CD2
DYEAR=2009
DGENRE=Country
TTITLE0=01_Khuc Mua_Quang Dung (Phu Quang)
TTITLE1=02_Romance No 1_My Hanh (Phu Quang)
TTITLE2=03_Pho cu cua toi_Tung Duong (Phu Quang)
TTITLE3=04_Sinh nhat den_Kasim Hoang Vu (Phu Quang)
TTITLE4=05_Romance No 4_Hang Nga (Phu Quang)
TTITLE5=06_Ve lai pho xua_Hong Nhung (Phu Quang)
TTITLE6=07_Bien noi nho va em_Kasim Hoang Vu (Phu Quang)
TTITLE7=08_Noi buon_Hong Nhung (Phu Quang)
TTITLE8=09_Ky niem cua toi_Tan Minh (Phu Quang)
TTITLE9=10_Trong giac mo xua_Ngoc Anh (Phu Quang)
TTITLE10=11_Ngon nen_Tan Minh (Phu Quang)
TTITLE11=12_Khi mua thu den_Doc tau violoncello_NSUT Ngo Hoang Quan-Da
TTITLE11=n nhac giao huong VN (Phu Quang)
EXTD=
EXTT0=
EXTT1=
EXTT2=
EXTT3=
EXTT4=
EXTT5=
EXTT6=
EXTT7=
EXTT8=
EXTT9=
EXTT10=
EXTT11=
PLAYORDER=
